<?xml version="1.0" encoding="UTF-8"?>
<!DOCTYPE svg PUBLIC "-//W3C//DTD SVG 1.1//EN" "http://www.w3.org/Graphics/SVG/1.1/DTD/svg11.dtd">
<!-- Creator: CorelDRAW 2021 (64-Bit) -->
<svg xmlns="http://www.w3.org/2000/svg" xml:space="preserve" width="135.997mm" height="148.626mm" version="1.1" style="shape-rendering:geometricPrecision; text-rendering:geometricPrecision; image-rendering:optimizeQuality; fill-rule:evenodd; clip-rule:evenodd"
viewBox="0 0 13284.55 14518.26"
 xmlns:xlink="http://www.w3.org/1999/xlink"
 xmlns:xodm="http://www.corel.com/coreldraw/odm/2003">
 <defs>
  <style type="text/css">
   <![CDATA[
    .fil49 {fill:none;fill-rule:nonzero}
    .fil1 {fill:#46C4D1;fill-rule:nonzero}
    .fil25 {fill:#A2DBF4;fill-rule:nonzero}
    .fil10 {fill:#D8DEE8;fill-rule:nonzero}
    .fil8 {fill:#EFCB35;fill-rule:nonzero}
    .fil35 {fill:#FC4444;fill-rule:nonzero}
    .fil37 {fill:#FC5465;fill-rule:nonzero}
    .fil41 {fill:#FF3F41;fill-rule:nonzero}
    .fil5 {fill:white;fill-rule:nonzero}
    .fil12 {fill:#D8DEE8;fill-rule:nonzero;fill-opacity:0.250980}
    .fil9 {fill:#EFCB35;fill-rule:nonzero;fill-opacity:0.301961}
    .fil48 {fill:white;fill-rule:nonzero;fill-opacity:0.301961}
    .fil36 {fill:#FC4444;fill-rule:nonzero;fill-opacity:0.400000}
    .fil11 {fill:#D8DEE8;fill-rule:nonzero;fill-opacity:0.501961}
    .fil30 {fill:white;fill-rule:nonzero;fill-opacity:0.501961}
    .fil43 {fill:url(#id0);fill-rule:nonzero}
    .fil28 {fill:url(#id1);fill-rule:nonzero}
    .fil0 {fill:url(#id2);fill-rule:nonzero}
    .fil20 {fill:url(#id3);fill-rule:nonzero}
    .fil3 {fill:url(#id4);fill-rule:nonzero}
    .fil27 {fill:url(#id5);fill-rule:nonzero}
    .fil22 {fill:url(#id6);fill-rule:nonzero}
    .fil21 {fill:url(#id7);fill-rule:nonzero}
    .fil29 {fill:url(#id8);fill-rule:nonzero}
    .fil32 {fill:url(#id9);fill-rule:nonzero}
    .fil31 {fill:url(#id10);fill-rule:nonzero}
    .fil19 {fill:url(#id11);fill-rule:nonzero}
    .fil33 {fill:url(#id12);fill-rule:nonzero}
    .fil26 {fill:url(#id13);fill-rule:nonzero}
    .fil44 {fill:url(#id14);fill-rule:nonzero}
    .fil24 {fill:url(#id15);fill-rule:nonzero}
    .fil18 {fill:url(#id16);fill-rule:nonzero}
    .fil17 {fill:url(#id17);fill-rule:nonzero}
    .fil23 {fill:url(#id18);fill-rule:nonzero}
    .fil4 {fill:url(#id19);fill-rule:nonzero}
    .fil34 {fill:url(#id20);fill-rule:nonzero}
    .fil7 {fill:url(#id21);fill-rule:nonzero}
    .fil47 {fill:url(#id22);fill-rule:nonzero}
    .fil50 {fill:url(#id23);fill-rule:nonzero}
    .fil52 {fill:url(#id24);fill-rule:nonzero}
    .fil13 {fill:url(#id25);fill-rule:nonzero}
    .fil45 {fill:url(#id26);fill-rule:nonzero}
    .fil14 {fill:url(#id27);fill-rule:nonzero}
    .fil2 {fill:url(#id28);fill-rule:nonzero}
    .fil16 {fill:url(#id29);fill-rule:nonzero}
    .fil6 {fill:url(#id30);fill-rule:nonzero}
    .fil40 {fill:url(#id31);fill-rule:nonzero}
    .fil46 {fill:url(#id32);fill-rule:nonzero}
    .fil15 {fill:url(#id33);fill-rule:nonzero}
    .fil38 {fill:url(#id34);fill-rule:nonzero}
    .fil39 {fill:url(#id35);fill-rule:nonzero;fill-opacity:0.301961}
    .fil51 {fill:url(#id36);fill-rule:nonzero;fill-opacity:0.301961}
    .fil42 {fill:url(#id37);fill-rule:nonzero;fill-opacity:0.400000}
   ]]>
  </style>
  <linearGradient id="id0" gradientUnits="userSpaceOnUse" x1="2697.44" y1="7911.77" x2="3355.37" y2="7911.77">
   <stop offset="0" style="stop-opacity:1; stop-color:#311944"/>
   <stop offset="1" style="stop-opacity:1; stop-color:#893976"/>
  </linearGradient>
  <linearGradient id="id1" gradientUnits="userSpaceOnUse" x1="7959.01" y1="10562.42" x2="9984.26" y2="10562.42">
   <stop offset="0" style="stop-opacity:1; stop-color:#FFC444"/>
   <stop offset="0.309804" style="stop-opacity:1; stop-color:#FBA94A"/>
   <stop offset="1" style="stop-opacity:1; stop-color:#F36F56"/>
  </linearGradient>
  <linearGradient id="id2" gradientUnits="userSpaceOnUse" x1="1982.09" y1="7254.73" x2="12832.25" y2="7254.73">
   <stop offset="0" style="stop-opacity:1; stop-color:#D8DEE8"/>
   <stop offset="1" style="stop-opacity:1; stop-color:white"/>
  </linearGradient>
  <linearGradient id="id3" gradientUnits="userSpaceOnUse" x1="7790.79" y1="11226.74" x2="9151.88" y2="11226.74">
   <stop offset="0" style="stop-opacity:1; stop-color:#311944"/>
   <stop offset="1" style="stop-opacity:1; stop-color:#6B3976"/>
  </linearGradient>
  <linearGradient id="id4" gradientUnits="userSpaceOnUse" xlink:href="#id2" x1="380.71" y1="7255.12" x2="3759.36" y2="7255.12">
  </linearGradient>
  <linearGradient id="id5" gradientUnits="userSpaceOnUse" xlink:href="#id3" x1="10420.87" y1="10164.11" x2="12246.36" y2="10164.11">
  </linearGradient>
  <linearGradient id="id6" gradientUnits="userSpaceOnUse" x1="9942.83" y1="9368.21" x2="10651.48" y2="9368.21">
   <stop offset="0" style="stop-opacity:1; stop-color:#40447E"/>
   <stop offset="1" style="stop-opacity:1; stop-color:#3C3B6B"/>
  </linearGradient>
  <linearGradient id="id7" gradientUnits="userSpaceOnUse" xlink:href="#id1" x1="7975.71" y1="10663.13" x2="12665.11" y2="10663.13">
  </linearGradient>
  <linearGradient id="id8" gradientUnits="userSpaceOnUse" xlink:href="#id1" x1="9734.16" y1="10563.26" x2="13284.55" y2="10563.26">
  </linearGradient>
  <linearGradient id="id9" gradientUnits="userSpaceOnUse" xlink:href="#id3" x1="9065.87" y1="11461.59" x2="10372.3" y2="11461.59">
  </linearGradient>
  <linearGradient id="id10" gradientUnits="userSpaceOnUse" xlink:href="#id6" x1="9187.57" y1="11095.62" x2="10792.88" y2="11095.62">
  </linearGradient>
  <linearGradient id="id11" gradientUnits="userSpaceOnUse" xlink:href="#id3" x1="7375.26" y1="11240.7" x2="8756.27" y2="11240.7">
  </linearGradient>
  <linearGradient id="id12" gradientUnits="userSpaceOnUse" xlink:href="#id3" x1="9454.11" y1="11457.7" x2="10749.38" y2="11457.7">
  </linearGradient>
  <linearGradient id="id13" gradientUnits="userSpaceOnUse" xlink:href="#id3" x1="11090.72" y1="9298.87" x2="12062.13" y2="9298.87">
  </linearGradient>
  <linearGradient id="id14" gradientUnits="userSpaceOnUse" xlink:href="#id0" x1="2766.47" y1="8130.59" x2="3322" y2="8130.59">
  </linearGradient>
  <linearGradient id="id15" gradientUnits="userSpaceOnUse" xlink:href="#id6" x1="9379.91" y1="9780.07" x2="10324.19" y2="9780.07">
  </linearGradient>
  <linearGradient id="id16" gradientUnits="userSpaceOnUse" xlink:href="#id3" x1="12409.36" y1="11307.57" x2="13199.79" y2="11307.57">
  </linearGradient>
  <linearGradient id="id17" gradientUnits="userSpaceOnUse" xlink:href="#id3" x1="12168.44" y1="11304.52" x2="12973.16" y2="11304.52">
  </linearGradient>
  <linearGradient id="id18" gradientUnits="userSpaceOnUse" xlink:href="#id6" x1="10015.53" y1="9359.91" x2="10580.21" y2="9359.91">
  </linearGradient>
  <linearGradient id="id19" gradientUnits="userSpaceOnUse" xlink:href="#id2" x1="1952.34" y1="4591.48" x2="2012.17" y2="882.85">
  </linearGradient>
  <linearGradient id="id20" gradientUnits="userSpaceOnUse" xlink:href="#id1" x1="8018.87" y1="11205.11" x2="8014.13" y2="14680.19">
  </linearGradient>
  <linearGradient id="id21" gradientUnits="userSpaceOnUse" x1="4022.05" y1="4708.16" x2="1089.74" y2="8554.28">
   <stop offset="0" style="stop-opacity:1; stop-color:#E38DDD"/>
   <stop offset="1" style="stop-opacity:1; stop-color:#9571F6"/>
  </linearGradient>
  <linearGradient id="id22" gradientUnits="userSpaceOnUse" xlink:href="#id3" x1="4427.85" y1="10049.84" x2="4424.82" y2="8748.86">
  </linearGradient>
  <linearGradient id="id23" gradientUnits="userSpaceOnUse" x1="6688.29" y1="-406.72" x2="7977.01" y2="1554.61">
   <stop offset="0" style="stop-opacity:1; stop-color:#FF9085"/>
   <stop offset="1" style="stop-opacity:1; stop-color:#FB6FBB"/>
  </linearGradient>
  <linearGradient id="id24" gradientUnits="userSpaceOnUse" xlink:href="#id23" x1="7078.48" y1="2051.93" x2="6786.12" y2="3034.6">
  </linearGradient>
  <linearGradient id="id25" gradientUnits="userSpaceOnUse" xlink:href="#id1" x1="17046.96" y1="6785.08" x2="14750.66" y2="7997.06">
  </linearGradient>
  <linearGradient id="id26" gradientUnits="userSpaceOnUse" xlink:href="#id3" x1="4805.54" y1="10955.9" x2="3825.84" y2="10370.28">
  </linearGradient>
  <linearGradient id="id27" gradientUnits="userSpaceOnUse" xlink:href="#id1" x1="18447.38" y1="6368.1" x2="16131.52" y2="8189.05">
  </linearGradient>
  <linearGradient id="id28" gradientUnits="userSpaceOnUse" xlink:href="#id2" x1="8321.54" y1="4250.74" x2="8321.29" y2="5326.36">
  </linearGradient>
  <linearGradient id="id29" gradientUnits="userSpaceOnUse" xlink:href="#id1" x1="16895.44" y1="9006.78" x2="13809.63" y2="10638.64">
  </linearGradient>
  <linearGradient id="id30" gradientUnits="userSpaceOnUse" xlink:href="#id21" x1="2422.43" y1="5168.62" x2="-328.9" y2="8304.76">
  </linearGradient>
  <linearGradient id="id31" gradientUnits="userSpaceOnUse" x1="5373.57" y1="12849.56" x2="2631.97" y2="10178.56">
   <stop offset="0" style="stop-opacity:1; stop-color:#AA80F9"/>
   <stop offset="1" style="stop-opacity:1; stop-color:#6165D7"/>
  </linearGradient>
  <linearGradient id="id32" gradientUnits="userSpaceOnUse" xlink:href="#id1" x1="-4894.86" y1="9720.22" x2="-7019.67" y2="10623.94">
  </linearGradient>
  <linearGradient id="id33" gradientUnits="userSpaceOnUse" xlink:href="#id1" x1="18888.68" y1="8434.27" x2="15664.09" y2="10966.51">
  </linearGradient>
  <linearGradient id="id34" gradientUnits="userSpaceOnUse" xlink:href="#id31" x1="8699.45" y1="13314.49" x2="5858.25" y2="10949.07">
  </linearGradient>
  <linearGradient id="id35" gradientUnits="userSpaceOnUse" xlink:href="#id31" x1="8419.32" y1="12733.8" x2="5619.63" y2="11474.69">
  </linearGradient>
  <linearGradient id="id36" gradientUnits="userSpaceOnUse" xlink:href="#id23" x1="6207.18" y1="-60.93" x2="7838.68" y2="985.89">
  </linearGradient>
  <linearGradient id="id37" gradientUnits="userSpaceOnUse" xlink:href="#id23" x1="2716.87" y1="16737.83" x2="6132.58" y2="11012.37">
  </linearGradient>
 </defs>
 <g id="Слой_x0020_1">
  <metadata id="CorelCorpID_0Corel-Layer"/>
  <g id="_2161710947808">
   <g id="Vector_Smart_Object" data-name="Vector Smart Object">
    <g id="Group_427" data-name="Group 427">
     <polygon id="Path_1278" class="fil0" points="12818.68,6011.34 12832.25,10044.39 3950.44,10215.12 1982.09,4294.33 10728.13,4715.01 10694.12,4885.98 " data-name="Path 1278"/>
     <polygon id="Path_1279" class="fil1" points="12818.68,6011.34 10711.18,4632.91 1982.09,4294.33 3921.62,5689.07 " data-name="Path 1279"/>
     <polygon id="Path_1280" class="fil2" points="12962.59,6348.47 3755.62,5924.6 3755.62,5585.07 12962.72,6014.78 " data-name="Path 1280"/>
     <g id="Group_422" data-name="Group 422">
      <polygon id="Path_1281" class="fil3" points="1982.09,4294.33 408.11,6000.43 380.71,9758.62 3759.36,10215.9 3759.12,5584.92 " data-name="Path 1281"/>
      <polygon id="Path_1282" class="fil4" points="3759.09,5967.61 1971.89,4566.33 378.18,6250.13 379.99,6005.14 1979.12,4295.11 3759.09,5585.07 " data-name="Path 1282"/>
      <g id="Group_421" data-name="Group 421">
       <g id="Group_418" data-name="Group 418">
        <polygon id="Path_1283" class="fil5" points="681.07,9120.14 700.47,6217.22 1507.32,6131.93 1492.35,9195.4 " data-name="Path 1283"/>
        <polygon id="Path_1284" class="fil6" points="1437.06,9074.1 737.95,9021.43 755.6,6317.37 1451.31,6246.02 " data-name="Path 1284"/>
        <polygon id="Path_1285" class="fil5" points="1059.72,9152.68 1077.06,6176.57 1146.61,6168.82 1129.65,9158.08 " data-name="Path 1285"/>
        <g id="Group_417" data-name="Group 417">
         <polygon id="Path_1286" class="fil5" points="1496.85,8254.71 687,8228.86 687.7,8123.34 1497.38,8143.37 " data-name="Path 1286"/>
         <polygon id="Path_1287" class="fil5" points="1502.2,7159.25 693.91,7190.82 694.6,7085.78 1502.74,7048.4 " data-name="Path 1287"/>
        </g>
       </g>
       <g id="Group_420" data-name="Group 420">
        <polygon id="Path_1288" class="fil5" points="2116.46,9247.77 2127.67,6064.48 3124.09,5956.58 3119.59,9333.6 " data-name="Path 1288"/>
        <polygon id="Path_1289" class="fil7" points="3023.96,9205.54 2185.82,9139.97 2195.83,6173.4 3028.8,6088.93 " data-name="Path 1289"/>
        <polygon id="Path_1290" class="fil5" points="2557.61,9287 2565.99,6017.57 2647.91,6008.7 2640.16,9294.07 " data-name="Path 1290"/>
        <g id="Group_419" data-name="Group 419">
         <polygon id="Path_1291" class="fil5" points="3120.96,8295.96 2119.93,8269.96 2120.34,8154.22 3121.15,8173.16 " data-name="Path 1291"/>
         <polygon id="Path_1292" class="fil5" points="3122.56,7088.37 2123.9,7131.63 2124.31,7016.46 3122.72,6966.19 " data-name="Path 1292"/>
        </g>
       </g>
      </g>
     </g>
     <g id="Group_424" data-name="Group 424">
      <polygon id="Path_1293" class="fil5" points="8409.94,7121.47 8422.86,10106.09 5408.01,10148.3 5379.35,7055.42 " data-name="Path 1293"/>
      <polygon id="Path_1294" class="fil8" points="8355.33,10106.94 5495.06,10147 5470.22,7430.19 5467.84,7161.39 8342.41,7220.54 8355,10037.32 " data-name="Path 1294"/>
      <path id="Path_1295" class="fil9" d="M8355.33 10106.94l-2860.28 40.06 -24.84 -2716.81c194.17,-8.68 653.89,51.69 910.58,758.87 331.57,913.17 462.84,1117.52 1026.36,1202.66 443.3,66.94 803.09,323.58 947.83,645.62l0.34 69.6z" data-name="Path 1295"/>
      <polygon id="Path_1296" class="fil10" points="8533.1,7341.49 5264.5,7278.74 5260.7,6878.87 8531.59,6956.79 " data-name="Path 1296"/>
      <polygon id="Path_1297" class="fil5" points="8493.73,7658.4 5311.45,7609.43 5308.35,7279.62 8492.49,7340.77 " data-name="Path 1297"/>
      <g id="Group_423" data-name="Group 423">
       <polygon id="Path_1298" class="fil11" points="8492.83,7441.1 5309.36,7383.8 5308.88,7331.72 8492.63,7390.94 " data-name="Path 1298"/>
       <polygon id="Path_1299" class="fil11" points="8493.32,7558.12 5310.5,7505.33 5310.01,7453.25 8493.12,7507.99 " data-name="Path 1299"/>
      </g>
     </g>
     <g id="Group_426" data-name="Group 426">
      <polygon id="Path_1300" class="fil5" points="12262.86,7205.52 12257.56,10052.43 9518.17,10090.76 9510.54,7145.48 " data-name="Path 1300"/>
      <polygon id="Path_1301" class="fil8" points="12200.77,7300.14 12195.92,10053.34 9584.02,10089.88 9576.97,7246.08 " data-name="Path 1301"/>
      <polygon id="Path_1302" class="fil10" points="12373.63,7415.31 9391.75,7358.03 9390.7,6977.25 12374.38,7048.33 " data-name="Path 1302"/>
      <polygon id="Path_1303" class="fil5" points="12323.67,7717.34 9445.69,7673.04 9444.84,7359.05 12324.26,7414.32 " data-name="Path 1303"/>
      <g id="Group_425" data-name="Group 425">
       <polygon id="Path_1304" class="fil11" points="12314.83,7509.2 9440.83,7457.85 9438.55,7408.04 12314.97,7461.36 " data-name="Path 1304"/>
       <polygon id="Path_1305" class="fil12" points="12314.57,7620.83 9441.09,7573.53 9438.77,7523.73 12314.65,7572.99 " data-name="Path 1305"/>
      </g>
     </g>
    </g>
    <g id="Group_431" data-name="Group 431">
     <g id="Group_429" data-name="Group 429">
      <polygon id="Path_1306" class="fil13" points="2161.64,8876.44 748.34,8703.28 748.34,6615.83 2161.64,6347.71 " data-name="Path 1306"/>
      <g id="Group_428" data-name="Group 428">
       <polygon id="Path_1307" class="fil14" points="3885.52,8766.47 2161.64,8876.47 2161.64,6347.74 3885.52,6586.09 " data-name="Path 1307"/>
       <polygon id="Path_1308" class="fil5" points="2811.46,6437.58 2811.46,6792.13 3385.36,6845.84 3385.36,6517.03 " data-name="Path 1308"/>
      </g>
     </g>
     <g id="Group_430" data-name="Group 430">
      <polygon id="Path_1309" class="fil15" points="4224.55,11637.29 1907.73,11800.48 1907.73,8402.01 4224.55,8565.2 " data-name="Path 1309"/>
      <polygon id="Path_1310" class="fil16" points="1907.76,11800.48 8.36,11567.86 8.36,8618.91 1907.76,8401.97 " data-name="Path 1310"/>
      <polygon id="Path_1311" class="fil5" points="2727.9,8459.77 2727.9,8991.09 3504.17,9030.56 3504.17,8514.43 " data-name="Path 1311"/>
     </g>
    </g>
    <g id="Group_448" data-name="Group 448">
     <g id="Group_433" data-name="Group 433">
      <path id="Path_1312" class="fil17" d="M12973.16 11300.99c0,-177.81 -70.38,-333.61 -170.58,-427.97l2.35 -102.66 -253.67 8.37c-208.37,15.84 -382.82,252.59 -382.82,536.62 0,284.03 178.15,514.48 379.13,523l0 0.31 267.93 -1.24 0 -102.53c101.03,-122.06 156.74,-275.43 157.66,-433.9l0 -0.02z" data-name="Path 1312"/>
      <g id="Group_432" data-name="Group 432">
       <path id="Path_1313" class="fil18" d="M13199.79 11291.23c0,294.77 -175.2,542.49 -392.7,553.37 -219.03,10.96 -397.74,-222.14 -397.74,-520.68 0,-298.54 178.69,-546.42 397.74,-553.58 217.52,-7.14 392.7,226.09 392.7,520.88z" data-name="Path 1313"/>
       <path id="Path_1314" class="fil5" d="M13002.84 11299.36c0,169.31 -87.44,310.61 -195.65,315.62 -108.21,5.01 -196.89,-129.02 -196.89,-299.39 0,-170.37 88.32,-311.72 196.89,-315.67 108.57,-3.96 195.65,130.12 195.65,299.44z" data-name="Path 1314"/>
       <path id="Path_1315" class="fil10" d="M12807.11 10999.92c-10.64,0.41 -21.23,2.15 -31.43,5.15 93.43,20.13 164.61,144.16 164.61,296.91 0,152.75 -71.18,282.67 -164.61,310.53 8.52,1.8 17.25,2.71 25.97,2.71 1.81,0 3.65,-0.05 5.44,-0.13 108.21,-5.01 195.65,-146.31 195.65,-315.62 0,-169.31 -87.42,-303.44 -195.63,-299.54z" data-name="Path 1315"/>
      </g>
     </g>
     <g id="Group_435" data-name="Group 435">
      <path id="Path_1316" class="fil19" d="M8756.27 11215.49c0,-285.41 -110.25,-532.21 -278.33,-684.03l-17.6 -162.31 -406.36 10.77c-371.78,24.5 -678.72,417.38 -678.72,892.46 0,475.08 315.83,843.56 667.51,839.35l0 0.52 435.41 -22.2 -0.01 -165.93c167.48,-165.05 278.1,-423.22 278.1,-708.63z" data-name="Path 1316"/>
      <g id="Group_434" data-name="Group 434">
       <path id="Path_1317" class="fil20" d="M9151.88 11199.91c0,472.11 -299.81,870.55 -673.6,890.14 -377.96,19.8 -687.48,-354.6 -687.48,-836.48 0,-481.88 309.58,-880.7 687.48,-890.7 373.8,-9.88 673.6,364.92 673.6,837.05z" data-name="Path 1317"/>
       <path id="Path_1318" class="fil5" d="M8814.6 11213.12c0,271.69 -150.14,498.99 -336.27,507.71 -187.17,8.79 -339.71,-206.58 -339.71,-481.06 0,-274.48 152.48,-501.87 339.71,-507.83 186.14,-5.87 336.27,209.58 336.27,481.19z" data-name="Path 1318"/>
       <path id="Path_1319" class="fil10" d="M8478.33 10732.01c-18.28,0.6 -36.47,3.33 -54.12,8.08 160.81,32.67 283.16,232.02 283.16,477.31 0,245.29 -122.33,454.3 -283.16,499.64 14.3,2.73 28.88,4.12 43.47,4.12 3.53,0 7.14,-0.12 10.64,-0.25 186.09,-8.71 336.27,-236.02 336.27,-507.71 0,-271.69 -150.12,-487.14 -336.26,-481.19z" data-name="Path 1319"/>
      </g>
     </g>
     <path id="Path_1320" class="fil21" d="M12665.11 9478.31l-1335.19 10.52 -0.49 1.91c-11.07,-1.02 -22.26,-1.55 -33.41,-1.55 -20.03,0 -40.18,1.69 -59.89,4.95l-293.4 49.11c-554.72,92.81 -1049.32,456.53 -1336.74,989.49l-84.91 157.45c-2.29,4.38 -6.75,7.2 -11.69,7.4l-466.69 12.45c-7.57,0.21 -11.89,-6.02 -11.89,-13.9l0.01 -300.2c-0.01,-1.23 0.02,-2.53 0.02,-3.77 0,-122.09 -99.01,-221.11 -221.11,-221.11 -0.29,0 -0.63,0 -0.92,0l-699.4 12.92c-74.66,2.95 -133.71,64.39 -133.71,139.15 0,1.26 0.02,2.53 0.05,3.77l0 474.54 1141.09 1026.6c13.58,12.8 31.54,19.92 50.19,19.92 1.12,0 2.28,-0.04 3.4,-0.08l1204.68 -52.95c33.34,-2.32 62.15,-24.25 73.23,-55.79l181.53 -477.81c51.6,-145.9 185.76,-246.67 340.27,-255.65l538.46 -17.21c59.33,-2.92 113.42,-35.07 144.39,-85.74l707.08 -104.36 305.03 -1320.08z" data-name="Path 1320"/>
     <g id="Group_436" data-name="Group 436">
      <path id="Path_1321" class="fil22" d="M10299.11 9872.37c-199.29,3 -356.28,-217.33 -356.28,-501.6 0,-284.27 156.99,-506.88 356.28,-506.75 198.08,0 352.37,220.46 352.37,501.63 0,281.17 -154.3,503.74 -352.37,506.72zm0 -851.22c-111.84,0.21 -206.61,159.83 -206.61,348.52 0,188.69 94.77,346.95 206.61,345.52 111.84,-1.43 205.32,-161.02 205.32,-348.52 0,-187.5 -93.88,-345.73 -205.32,-345.52z" data-name="Path 1321"/>
     </g>
     <g id="Group_437" data-name="Group 437">
      <polygon id="Path_1322" class="fil23" points="10019.95,9449.07 10015.53,9291.41 10575.86,9270.73 10580.21,9427.09 " data-name="Path 1322"/>
     </g>
     <g id="Group_438" data-name="Group 438">
      <polygon id="Path_1323" class="fil24" points="9505.08,10273.69 9379.91,10142.86 10236.14,9286.46 10324.19,9424.81 " data-name="Path 1323"/>
     </g>
     <g id="Group_439" data-name="Group 439">
      <path id="Path_1324" class="fil25" d="M8629.81 10224.71l-159.39 -21.28 306.68 -2307.8c59.67,-449.21 433.19,-779.44 867.79,-768.2l1629.67 42.21 137.5 2590.55 -160.55 8.56 -129.62 -2441.97 -1481.17 -38.35c-352.61,-8.58 -655.41,261.04 -704.24,628.48l-306.68 2307.79z" data-name="Path 1324"/>
     </g>
     <path id="Path_1325" class="fil26" d="M12062.06 9824.11c0.03,1.56 0.07,3.24 0.07,4.85 0,82.42 -64.71,150.37 -147.01,154.4l-664.74 10.88c-0.24,0 -0.5,0 -0.75,0 -87.74,0 -158.9,-71.15 -158.9,-158.9 0,-0.53 0,-1.05 0,-1.57l0.02 -1073.37c0,-0.6 -0.02,-1.22 -0.02,-1.83 0,-85.63 69.44,-155.07 155.07,-155.07 1.72,0 3.49,0.04 5.19,0.1l663.16 25.53c83.38,6.12 147.9,75.59 147.9,159.18 0,1.13 -0.02,2.3 -0.04,3.41l0.06 1032.39z" data-name="Path 1325"/>
     <path id="Path_1326" class="fil27" d="M12246.18 10413.95c0,0.97 0.02,2 0.02,3.01 0,86.68 -67.06,158.65 -153.5,164.78l-1508.99 40.29c-0.19,-0.02 -0.39,-0.02 -0.57,-0.02 -89.61,0 -162.28,-72.67 -162.28,-162.28 0,-0.65 0.02,-1.33 0.02,-1.96l0 -561.66c0,-0.64 -0.02,-1.33 -0.02,-1.96 0,-90.35 71.18,-164.69 161.42,-168.63l1508.98 -19.33c86.19,1.95 155.09,72.43 155.09,158.68 0,1.03 -0.02,2.11 -0.04,3.12l-0.14 545.97z" data-name="Path 1326"/>
     <path id="Path_1327" class="fil28" d="M9934.14 10093.35l-1812.17 16.77c-0.85,-0.02 -1.78,-0.04 -2.64,-0.04 -85.6,0 -156.18,67.22 -160.33,152.71l0 768.72 2025.24 -57.76 -50.11 -880.4z" data-name="Path 1327"/>
     <g id="Group_440" data-name="Group 440">
      <path id="Path_1328" class="fil25" d="M10322.68 10190.93l-159.47 -20.68 291.28 -2249.08c55.93,-431.92 401.66,-751.53 808.49,-751.53 6.72,0 13.41,0 20.16,0.25l1323.28 34.27c129.22,3.36 235.91,113.88 242.95,251.63l118.22 2283.43 -160.58 8.35 -118.22 -2283.43c-0.02,-0.53 -0.01,-1.1 -0.01,-1.64 0,-49.73 -37.26,-91.59 -86.65,-97.35l-1323.28 -34.25c-333.02,-9.02 -618.79,254.06 -665.03,610.99l-291.14 2249.04z" data-name="Path 1328"/>
     </g>
     <path id="Path_1329" class="fil29" d="M13284.54 9821.27l0 863.23c0,103.61 -75.7,189.89 -169.24,192.84l-515.2 16.52c-142.15,4.55 -270.93,103.08 -325.47,249.75l-173.81 467.09c-10.48,30.55 -38.15,51.99 -70.37,54.47l-1152.11 50.59c-1.08,0.02 -2.2,0.06 -3.28,0.06 -18.3,0 -35.93,-6.99 -49.24,-19.54l-70.07 -64.62 -1021.58 -939.43 0 -463.66c0,-0.68 -0.02,-1.39 -0.02,-2.06 0,-73.56 57.84,-134.13 131.31,-137.52l673.58 -12.22c119.81,0.5 216.66,97.77 216.66,217.58 0,0.69 0,1.41 0,2.1l0.01 293.54c0,7.76 -0.52,13.68 6.72,13.54l441.96 -11.94c4.64,-0.24 8.79,-3.03 10.76,-7.26l80.84 -153.8c274.68,-520.96 747.45,-876.44 1277.92,-967.03l280.53 -48.05c18.89,-3.11 38.12,-4.73 57.29,-4.73 90.83,0 178.12,35.42 243.25,98.67 82.78,80.76 129.57,191.64 129.57,307.34 0,1.47 0,3.04 0,4.5l-0.01 0.04z" data-name="Path 1329"/>
     <g id="Group_441" data-name="Group 441">
      <path id="Path_1330" class="fil25" d="M9091.12 10790.99l-465.22 13.33c15.51,-1342.43 31.01,-2689 46.39,-4025.38l372.92 11.94c15.36,1334.31 30.65,2667.67 45.9,4000.11z" data-name="Path 1330"/>
      <polygon id="Path_1331" class="fil30" points="8896.84,10796.16 8796.35,10799.36 8796.35,6783 8896.84,6786.47 " data-name="Path 1331"/>
     </g>
     <g id="Group_442" data-name="Group 442">
      <path id="Path_1332" class="fil25" d="M7278.36 10843.02l-491.06 14.09c16.35,-1379.63 32.72,-2758.59 49.11,-4136.87l393.81 12.59c15.99,1370.68 32.04,2740.74 48.15,4110.2z" data-name="Path 1332"/>
      <polygon id="Path_1333" class="fil30" points="7071.34,10848.5 6970.85,10851.91 6970.85,6724.64 7071.34,6728.18 " data-name="Path 1333"/>
     </g>
     <path id="Path_1334" class="fil31" d="M10781.07 11655.07c-2.74,-2.59 117.39,-983.08 -352.81,-1117.43 -822.25,-3.83 -694.64,1.05 -694.64,1.05l-415.39 0.01 -130.65 493.98 1593.49 622.38z" data-name="Path 1334"/>
     <g id="Group_444" data-name="Group 444">
      <path id="Path_1335" class="fil32" d="M10372.3 11447.02c0,-278.46 -106.85,-519.85 -269.31,-668.23l-16.85 -157.66 -388.92 10.16c-351.34,23.26 -631.34,397.68 -631.34,850.96 0,453.28 283.04,813.27 634.7,819.3l0 0.52 401.92 -9.69 0 -161.17c167.57,-156.4 269.81,-405.73 269.81,-684.18z" data-name="Path 1335"/>
      <g id="Group_443" data-name="Group 443">
       <path id="Path_1336" class="fil33" d="M10749.38 11432.18c0,460.66 -285.49,849.07 -641.17,867.71 -359.61,18.84 -654.1,-346.69 -654.1,-816.71 0,-470.02 294.46,-858.71 654.1,-868.22 355.68,-9.34 641.17,356.55 641.17,817.22z" data-name="Path 1336"/>
       <path id="Path_1337" class="fil5" d="M10428.25 11444.82c0,265.07 -142.9,486.64 -320.04,494.94 -178.1,8.35 -323.22,-201.88 -323.22,-469.58 0,-267.7 145.12,-489.38 323.22,-495.1 177.14,-5.64 320.04,204.67 320.04,469.74z" data-name="Path 1337"/>
       <path id="Path_1338" class="fil10" d="M10108.16 10975.1c-17.41,0.53 -34.73,3.16 -51.52,7.75 153.03,31.97 269.46,226.56 269.46,465.86 0,239.3 -116.3,443.07 -269.46,487.11 13.68,2.65 27.61,4.02 41.55,4.02 3.3,0 6.68,-0.11 9.95,-0.23 177.15,-8.29 320.04,-229.87 320.04,-494.94 0,-265.07 -142.83,-475.22 -320.03,-469.56z" data-name="Path 1338"/>
      </g>
     </g>
     <g id="Group_445" data-name="Group 445">
      <polygon id="Path_1339" class="fil34" points="9231.77,11931.28 6786.81,11834 6786.81,10539.54 9231.77,10529.43 " data-name="Path 1339"/>
      <polygon id="Path_1340" class="fil35" points="8963.83,11920.12 6569.06,11825.65 6569.06,10540 8963.84,10529.67 " data-name="Path 1340"/>
     </g>
     <g id="Group_446" data-name="Group 446">
      <polygon id="Path_1341" class="fil25" points="6954.24,12284.3 6954.24,12408.77 7339.33,12464.67 8674.43,11927.42 8721.52,10556.2 8665.13,10453.31 8435.73,11824.3 " data-name="Path 1341"/>
      <polygon id="Path_1342" class="fil25" points="8417.33,10456.04 8390.25,11779.81 6948.65,12284.31 7328.73,12334.63 8628.45,11861.06 8663.57,10455.96 " data-name="Path 1342"/>
     </g>
     <g id="Group_447" data-name="Group 447">
      <polygon id="Path_1343" class="fil25" points="5396.77,12162.41 5396.77,12285.7 5725.49,12316.46 7019,11825.96 7063.58,10533.39 7010.47,10436.42 6793.81,11728.69 " data-name="Path 1343"/>
      <polygon id="Path_1344" class="fil25" points="6776.84,10439.11 6751.3,11686.89 5392.46,12162.44 5708.68,12182.37 6975.71,11763.44 7008.81,10439 " data-name="Path 1344"/>
     </g>
     <path id="Path_1345" class="fil36" d="M13284.54 9855.49l0 828.96c0,103.61 -75.7,189.89 -169.24,192.84l-515.2 16.52c-142.15,4.55 -270.93,103.08 -325.47,249.75l-173.81 467.15c-10.48,30.55 -38.15,51.99 -70.37,54.47l-1152.11 50.59c-1.08,0.02 -2.2,0.06 -3.28,0.06 -18.3,0 -35.93,-6.99 -49.24,-19.54l-70.35 -64.62c10.73,-25.85 23.05,-52.47 37.25,-79.71 283.65,-544.43 968.53,-348.91 1120.47,-832.03 151.95,-483.12 134.01,-563.63 862.38,-626.57 245.6,-21.25 405.17,-118.22 508.97,-237.86z" data-name="Path 1345"/>
    </g>
    <path id="Path_1346" class="fil5" d="M6161.2 9341.06c0,0 -46.94,-233.26 10.33,-280.24 57.27,-46.99 246.8,-374.24 238.11,-281.97 -9.41,71.49 -25.98,142.23 -48.68,210.59 -22.69,68.37 179,17.42 133.83,123.59 -45.18,106.17 -158.95,112.06 -149.9,166.57 9.05,54.51 -176.75,251.19 -183.69,61.46z" data-name="Path 1346"/>
    <path id="Path_1347" class="fil37" d="M6120.23 9295.4l265.97 -18.58c209.17,846.46 59.14,1667.57 -412.93,1969.42 -737.53,471.78 -2108.15,-417.09 -2405.19,-1384.95 -130.37,-424.82 -100.8,-1037.92 159.88,-1157.05 72.36,-33.09 184.56,-38.2 427.71,98.52 726.25,408.35 745.27,1180.07 1114.43,1245.43 164.17,29.11 429.21,-75.65 850.13,-752.79z" data-name="Path 1347"/>
    <path id="Path_1348" class="fil38" d="M4147.54 14518.26c-44.9,-815.34 -44.17,-1571.4 -16.41,-2256.71l-1354.3 209.86c64.43,883.7 236.92,1551.44 388.58,2008.18m982.12 38.67l0 0 0 0z" data-name="Path 1348"/>
    <path id="Path_1349" class="fil39" d="M3744.64 14518.26c-61.31,-305.7 -251.45,-495.58 -354.76,-716.66 -128.45,-274.97 -177.66,-716.64 168.53,-1451.29l-781.53 121.11c64.43,883.68 236.92,1551.44 388.58,2008.18m579.17 38.66l0 0 0 0z" data-name="Path 1349"/>
    <path id="Path_1350" class="fil40" d="M2921.39 14518.26c72.49,-780.05 150.02,-1549.92 232.6,-2309.61 -893.01,-90.33 -1216.64,211.49 -1321.24,333.15 -288.28,335.19 -237.28,879.23 -77.87,1900.23m1166.51 76.23l0 0 0 0z" data-name="Path 1350"/>
    <path id="Path_1351" class="fil41" d="M767.88 9100.11c393.55,-250.7 746.18,-446.06 1165.95,-538.96 372.82,-82.5 655.21,-56.31 1004.66,-29.74 676.79,51.49 1099.92,83.69 1377.55,402.9 245.53,282.3 251.01,648.71 252.69,726.72 6.8,314.15 -115.22,474.45 -204.85,734.83 -144.27,419.06 1.73,497.58 44.09,1611.71 0,0 42.07,1321.81 -294.22,1523.11 -143.91,86.15 -266.65,382.33 -1000.99,309.42 -492.43,-48.87 -652.57,-57.95 -902,26.57 -339.59,115.06 -473.69,-105.53 -613.77,-168.39 -134.39,-60.3 -151.43,-292.57 -167.66,-697.53 -25.02,-624.7 -23.49,-1049.32 -25.85,-1201.29 -10.6,-697.36 -186.92,-1229.8 -412.72,-1911.72 -141.01,-426.55 -109.24,-545.02 -222.88,-787.64z" data-name="Path 1351"/>
    <path id="Path_1352" class="fil42" d="M3828.42 13168.67c-361.19,-154.35 -359.09,-473.79 -696.45,-607.11 -472.71,-186.78 -1073.17,182.7 -1096.28,129.22 -25.66,-59.44 856.69,-293.03 1107.19,-950.23 95.19,-249.75 119.93,-615.28 -59.44,-769.44 -214.02,-183.89 -510.24,111.81 -842.97,-52.78 -382.51,-189.24 -316.5,-741.25 -642.74,-833.69 -172.83,-48.98 -356.88,59.03 -489.07,162.33 166.83,521.87 286.47,982.12 295.13,1552.52 2.3,151.99 0.77,576.58 25.85,1201.29 16.23,404.97 33.34,637.24 167.66,697.53 140.08,62.86 261.04,167.58 600.52,52.51 249.38,-84.52 449.32,-48.9 941.75,0 734.37,72.88 830.57,-133.95 974.37,-220.13 93.72,-56.11 138.27,-140.44 168,-302.39 -37.62,4.71 -75.64,7.23 -113.54,7.23 -116.57,0 -232.13,-22.79 -339.94,-66.93l-0.03 0.06z" data-name="Path 1352"/>
    <path id="Path_1353" class="fil41" d="M1526.43 10846.63c0,0 -78.08,-1063.06 640.24,-1097.29 718.32,-34.23 1935.19,-480.41 2115.33,110.44 180.15,590.86 224.03,2922.61 139.57,3219.96 -84.46,297.36 -349.48,917.51 -690.59,819.58 -341.11,-97.93 -2225.4,296.7 -2308.68,-97.13 -83.27,-393.83 -333.13,-2616.97 104.12,-2955.56z" data-name="Path 1353"/>
    <g id="Group_450" data-name="Group 450">
     <path id="Path_1354" class="fil5" d="M2872.36 7840.56c-5.45,137.18 -25.51,274.34 -58.37,407.49 -26.98,107.93 -43.7,135.27 -64.38,157.11 -31.01,32.85 -77.04,59.44 -331.11,108.21 -138.25,26.6 -155.77,24.73 -159.49,38.13 -18.22,65.36 341.83,310.77 729.14,276.96 237.03,-20.68 458.26,-143.65 448.88,-214.95 -9.44,-71.75 -246.46,-46.21 -309.67,-178.49 -43.94,-92.01 17.42,-216.05 87.59,-317.69 -56.29,-120.7 -286.34,-156.1 -342.6,-276.77z" data-name="Path 1354"/>
     <g id="Group_449" data-name="Group 449">
      <path id="Path_1355" class="fil43" d="M3305.32 7933.2c32.46,-43.11 50.05,-95.62 50.05,-149.56 0,-47.9 -13.86,-94.87 -39.89,-135.07 -51.33,-73.09 -137.42,-87.72 -188.96,-96.51 -149.39,-25.41 -342.37,27.29 -415.72,162.28 -43.45,80.12 32,255.12 43.61,286.49 13.16,35.49 39.7,48.82 63.45,76.4 32.9,38.22 84.39,98.96 168.28,200.43 10.24,-34.47 23.52,-68.09 39.54,-100.28 20.87,-41.87 47.1,-81.15 77.82,-116.35 83.28,-91.31 145.31,-60.63 201.81,-127.83z" data-name="Path 1355"/>
      <path id="Path_1356" class="fil5" d="M2863.39 8189.6c0,0 90.15,167.63 287.56,165.41 176.76,-2.07 223.64,-396.29 115.61,-486.26 -36.48,-24.33 -79.42,-37.33 -123.3,-37.33 -16.58,0 -33.18,1.88 -49.33,5.54 -36.65,8.22 -49.67,22.58 -109.8,34.81 -55.46,11.29 -70.59,4.4 -87.88,17.42 -21.58,16.31 -39,58.18 -10.68,175.75 -31.79,-35.87 -71.44,-51.12 -100.8,-39.13 -10.04,4.8 -18.59,12.29 -24.66,21.64 -26.94,43.74 11.2,103.65 103.27,142.16z" data-name="Path 1356"/>
      <path id="Path_1357" class="fil44" d="M2889.57 7865.04c8.14,6.8 -19.49,37.14 -23.82,81.96 -8.43,87 74.12,196.42 163.55,210.07 52.88,8.09 69.19,-23.26 157.66,-27.81 6.53,-0.3 13.21,-0.5 19.79,-0.5 36.47,0 72.89,4.96 107.98,14.74 22.52,97.1 -8.56,191.08 -74.75,231.91 -71.26,43.94 -157.5,10.33 -193.56,-3.67 -58.55,-19.6 -107.96,-60.09 -138.68,-113.69 -38.77,-77.54 5.64,-120.73 -40.78,-174.28 -23.41,-27.01 -55.39,-39.88 -84.44,-91.31 -6.21,-11.02 -11.61,-22.6 -16.05,-34.45 47.91,-45.87 111.31,-102.8 123.1,-92.96z" data-name="Path 1357"/>
      <path id="Path_1358" class="fil5" d="M3248.82 8175.57c-23.49,8.55 -48.33,12.94 -73.35,12.94 -10.47,0 -20.96,-0.78 -31.3,-2.31 -3.17,-0.36 -6.75,0.39 -7.26,2.04 -1.84,6.15 38.77,36.42 78.28,27.58 27.99,-6.31 50.86,-31.3 47.5,-38.17 -1.4,-2.88 -7.65,-2.85 -13.88,-2.08z" data-name="Path 1358"/>
     </g>
    </g>
    <path id="Path_1359" class="fil41" d="M1954.35 8556.72c0,0 462.14,1056.25 373.65,1387.64 -88.49,331.39 -348.73,102.01 -359.25,34.25 -10.52,-67.76 -549.03,-1243.93 -549.03,-1243.93 120.51,-117.54 282.54,-183.41 450.95,-183.41 27.93,0 56.01,1.9 83.69,5.44l-0.02 0.02z" data-name="Path 1359"/>
    <path id="Path_1360" class="fil41" d="M3457.65 8577.78c-10.33,5.89 383.75,958.32 336.89,1174.34 -46.86,216.02 353.44,90.89 309.45,-88.93 -43.99,-179.82 -160.88,-932.58 -241.99,-1007.79 -81.11,-75.21 -337.97,-115.15 -404.35,-77.62z" data-name="Path 1360"/>
    <path id="Path_1361" class="fil41" d="M2506.28 10269.2l1323.28 -222.86c0,0 155.48,738.77 -472.69,832.68 -628.17,93.91 -834.98,-265.77 -850.59,-609.82z" data-name="Path 1361"/>
    <g id="Group_451" data-name="Group 451">
     <path id="Path_1362" class="fil45" d="M5029.15 9709.51l-1406.53 199.94c-15.42,2.19 -28,13.54 -31.76,28.67l-476.44 1916.5c-6.83,27.5 29.85,90.75 57.54,84.88l1376.72 -333.4c14.05,-3.01 25.25,-13.63 29,-27.49l515.82 -1796.12c7.25,-26.5 -37.15,-76.86 -64.36,-72.98z" data-name="Path 1362"/>
     <path id="Path_1363" class="fil46" d="M5055.66 9752.49l-1406.5 199.94c-15.42,2.19 -28.01,13.55 -31.75,28.7l-476.35 1916.45c-0.76,3.04 -1.15,6.15 -1.15,9.28 0,21.17 17.16,38.33 38.33,38.33 2.66,0 5.31,-0.27 7.91,-0.82l1389.16 -295.26c14.04,-3 25.24,-13.62 28.99,-27.48l493.64 -1821.16c0.89,-3.26 1.34,-6.64 1.34,-10.03 0,-21.17 -17.16,-38.33 -38.33,-38.33 -1.77,0 -3.55,0.12 -5.29,0.36l0 0.02z" data-name="Path 1363"/>
     <path id="Path_1364" class="fil47" d="M4676.56 9860.92l39.37 -152.92c0.43,-1.7 0.65,-3.42 0.65,-5.15 0,-11.3 -9.17,-20.47 -20.47,-20.47 -0.68,0 -1.37,0.04 -2.04,0.11l-514.04 52.7c-8.86,0.92 -16.11,7.46 -17.93,16.19l-35.02 168.28c-0.29,1.37 -0.44,2.77 -0.44,4.18 0,11.3 9.17,20.47 20.47,20.47 0.9,0 1.8,-0.06 2.69,-0.18l509.69 -68.05c8.24,-1.12 15,-7.12 17.07,-15.18l0 0.02z" data-name="Path 1364"/>
     <path id="Path_1365" class="fil48" d="M3956.8 11413.29c61.28,-307.3 -109.5,-485.89 20.93,-733.1 184.48,-349.76 666.81,-259.17 785.39,-538.28 31.97,-75.26 39.9,-183.37 -29.98,-343.59l322.52 -45.82c1.78,-0.26 3.58,-0.39 5.38,-0.39 21.15,0 38.3,17.15 38.3,38.3 0,3.4 -0.45,6.8 -1.35,10.07l-493.64 1821.16c-3.76,13.85 -14.96,24.45 -29,27.44l-844.26 179.47c138.41,-148.33 200.82,-290.35 225.71,-415.26z" data-name="Path 1365"/>
    </g>
    <path id="Path_1366" class="fil5" d="M2902.95 11297.65c0,0 209.04,-64.4 286.05,-124.7 77.01,-60.3 155.75,-152.64 277.56,-160.55 121.81,-7.91 250.23,41.35 195.62,61.34 -54.61,19.99 -147.94,141.99 -223.43,194.05 -75.49,52.06 -257.88,74.75 -292.05,75.83 -34.17,1.08 -160.37,95.81 -160.37,95.81l-83.38 -141.77z" data-name="Path 1366"/>
    <path id="Path_1367" class="fil37" d="M3027.24 11028.04c111.84,93.87 159.49,186.09 170.24,271.37 47.61,378.3 -600.8,856.88 -1219.48,908.9 -457.96,38.51 -916.34,-156.19 -1205.04,-453.45 -563.43,-580.1 -596.61,-1670.85 -5.17,-2654.83l453.66 225.06c421.59,209.14 675.91,662.65 610.65,1129.28 -43.06,307.9 56.01,585.83 234.26,712.45 227.73,161.77 629.7,108.68 960.88,-138.79z" data-name="Path 1367"/>
    <path id="Path_1368" class="fil49" d="M1104.02 12926.87c-1011.35,-1034.77 -1585.81,-4339.81 -574.62,-5325.94 995.93,-971.24 5382.96,-180.4 6119.78,1021.51 1005.18,1639.68 -1098.63,3378.52 -2034.38,4343.25 -949.66,979.02 -2519.35,975.58 -3510.78,-38.82z" data-name="Path 1368"/>
   </g>
  </g>
  <g id="_2161710516560">
   <g id="Group_454" data-name="Group 454">
    <g id="Group_453" data-name="Group 453">
     <path id="Path_1369" class="fil50" d="M7871.99 861.52c0,368.69 -515.75,1041.55 -749.15,1327.09 -27.55,33.76 -68.86,53.36 -112.41,53.36 -43.58,0 -84.89,-19.6 -112.43,-53.37 -233.41,-285.59 -749.15,-958.4 -749.15,-1327.09 0.01,-475.73 385.8,-861.52 861.52,-861.52 475.71,0 861.5,385.79 861.5,861.52l0.13 0.01z" data-name="Path 1369"/>
     <ellipse id="Ellipse_9" class="fil5" transform="matrix(0.228999 -0.972994 0.972994 0.229999 7010.19 861.641)" rx="481.16" ry="480.51" data-name="Ellipse 9"/>
     <g id="Group_452" data-name="Group 452">
      <path id="Path_1370" class="fil51" d="M7006.75 1834.36c54.65,-360.49 292.36,-475.89 251.54,-816.3 -47.03,-392.56 -394.1,-497.13 -402.48,-846.5 -0.05,-3.87 -0.12,-7.93 -0.12,-11.87 0,-50.85 7.05,-101.71 20.82,-150.6 -418.91,66.36 -727.47,427.78 -727.47,851.98 0,0.11 0,0.31 0,0.42 0,368.69 515.75,1041.55 749.15,1327.09 27.45,33.77 68.73,53.4 112.27,53.4 7.38,0 14.79,-0.57 22.11,-1.7 -23.69,-85.94 -36,-175.09 -36,-264.35 0,-47.29 3.5,-94.94 10.26,-141.62l-0.07 0.04z" data-name="Path 1370"/>
     </g>
    </g>
    <path id="Ellipse_10" class="fil52" d="M7178.97 2557.31c-28.14,-93.2 -126.41,-145.89 -219.49,-117.69 -93.07,28.21 -145.71,126.63 -117.56,219.83 28.14,93.2 126.41,145.89 219.48,117.69 93.08,-28.21 145.71,-126.63 117.57,-219.83z" data-name="Ellipse 10"/>
   </g>
  </g>
 </g>
</svg>
