<?xml version="1.0" encoding="UTF-8"?>
<!DOCTYPE svg PUBLIC "-//W3C//DTD SVG 1.1//EN" "http://www.w3.org/Graphics/SVG/1.1/DTD/svg11.dtd">
<!-- Creator: CorelDRAW 2021 (64-Bit) -->
<svg xmlns="http://www.w3.org/2000/svg" xml:space="preserve" width="6.3793mm" height="9.3303mm" version="1.1" style="shape-rendering:geometricPrecision; text-rendering:geometricPrecision; image-rendering:optimizeQuality; fill-rule:evenodd; clip-rule:evenodd"
viewBox="0 0 76.68 112.15"
 xmlns:xlink="http://www.w3.org/1999/xlink"
 xmlns:xodm="http://www.corel.com/coreldraw/odm/2003">
 <defs>
  <style type="text/css">
   <![CDATA[
    .fil0 {fill:white}
   ]]>
  </style>
 </defs>
 <g id="Слой_x0020_1">
  <metadata id="CorelCorpID_0Corel-Layer"/>
  <path class="fil0" d="M43.91 67.77c-15.15,-7.37 -7.26,-25.76 -43.91,-49.56 46.01,13.55 49.96,38.65 54.05,41.78 3.35,3.55 17.62,-5.95 19.45,5.81l3.18 1.56 -3.69 0.04c-2.6,2.17 -7.14,3.21 -9.82,4.97 -5.57,5.16 -15.75,8.04 -20.2,11.81 -10.14,9.88 -14.77,19.42 -25.66,27.95 9.55,-9.53 19.51,-25.26 17.78,-25.66 -1.17,-1.31 -16.66,12.55 -34.76,16.41 20.48,-7.56 34.13,-17.83 43.57,-35.13z"/>
  <path class="fil0" d="M47.31 47.33c0.12,-0.73 7.49,-11.24 -7.19,-47.33 16.06,19.71 24.86,37.24 21.56,59.18 -10.2,2.78 -6.67,-2.21 -14.37,-11.86z"/>
 </g>
</svg>
